<svg xmlns="http://www.w3.org/2000/svg" width="440" height="340" viewBox="0 0 220 170" role="img"><title>shoulder-press — schematic exercise identifier</title><rect width="220" height="170" rx="0" fill="#dce8c9"/><circle cx="115" cy="87" r="64" fill="#cddcba"/><path d="M26 155H194" stroke="#b0c39a" stroke-width="1"/><rect x="87" y="120" width="50" height="7" rx="3" fill="#778d6b"/><polyline points="98,127 95,154 138,154" fill="none" stroke="#a1b08e" stroke-width="4" stroke-linecap="round" stroke-linejoin="round" opacity="1"/><circle cx="111" cy="61" r="10" fill="#2a442a"/><polyline points="111,78 111,118" fill="none" stroke="#325a32" stroke-width="9" stroke-linecap="round" stroke-linejoin="round" opacity="1"/><polyline points="109,85 84,69 83,43" fill="none" stroke="#304f31" stroke-width="7" stroke-linecap="round" stroke-linejoin="round" opacity="1"/><polyline points="114,85 140,67 140,43" fill="none" stroke="#304f31" stroke-width="7" stroke-linecap="round" stroke-linejoin="round" opacity="1"/><polyline points="111,118 88,128 86,152" fill="none" stroke="#304f31" stroke-width="7" stroke-linecap="round" stroke-linejoin="round" opacity="1"/><polyline points="111,118 137,128 139,152" fill="none" stroke="#304f31" stroke-width="7" stroke-linecap="round" stroke-linejoin="round" opacity="1"/><g transform="translate(80,39) rotate(0)"><rect x="-14" y="-4" width="28" height="8" rx="2" fill="#344e31"/><rect x="-16" y="-10" width="7" height="20" rx="2" fill="#263c25"/><rect x="9" y="-10" width="7" height="20" rx="2" fill="#263c25"/></g><g transform="translate(143,39) rotate(0)"><rect x="-14" y="-4" width="28" height="8" rx="2" fill="#344e31"/><rect x="-16" y="-10" width="7" height="20" rx="2" fill="#263c25"/><rect x="9" y="-10" width="7" height="20" rx="2" fill="#263c25"/></g><circle cx="186" cy="25" r="2" fill="#94aa7d"/></svg>